<?xml version="1.0" standalone="no"?>
<!DOCTYPE svg PUBLIC "-//W3C//DTD SVG 20010904//EN"
 "http://www.w3.org/TR/2001/REC-SVG-20010904/DTD/svg10.dtd">
<svg version="1.0" xmlns="http://www.w3.org/2000/svg"
 width="512.000000pt" height="512.000000pt" viewBox="0 0 512.000000 512.000000"
 preserveAspectRatio="xMidYMid meet">

<g transform="translate(0.000000,512.000000) scale(0.100000,-0.100000)"
fill="#000000" stroke="none">
<path d="M2162 3819 c-58 -29 -93 -89 -100 -174 l-5 -65 -616 0 c-690 0 -671
2 -821 -72 -119 -58 -231 -170 -288 -289 -43 -88 -72 -188 -72 -251 l0 -38
-52 0 c-87 -1 -171 -53 -197 -123 -7 -18 -11 -154 -11 -373 0 -288 3 -351 15
-382 32 -76 83 -110 179 -119 l64 -6 6 -63 c15 -144 81 -278 191 -389 80 -80
151 -124 257 -163 l73 -27 644 -3 c709 -3 698 -4 774 59 55 46 87 107 98 191
12 83 26 110 72 138 28 18 51 20 187 20 136 0 159 -2 187 -20 46 -28 60 -55
72 -138 11 -84 43 -145 98 -191 76 -63 65 -62 774 -59 l644 3 73 27 c106 38
177 83 257 163 110 111 176 245 191 389 l6 63 64 6 c96 9 147 43 179 119 12
31 15 94 15 382 0 219 -4 355 -11 373 -26 70 -110 122 -196 123 -53 0 -53 0
-53 33 -1 65 -31 173 -72 256 -59 121 -169 231 -288 289 -150 74 -131 72 -821
72 l-616 0 -5 65 c-7 85 -42 145 -101 174 -41 20 -58 21 -398 21 -340 0 -356
-1 -397 -21z m729 -129 c15 -8 19 -22 19 -60 l0 -50 -350 0 -350 0 0 50 c0 36
5 52 18 59 23 14 637 15 663 1z m1410 -264 c183 -39 335 -179 392 -361 22 -69
22 -80 22 -635 0 -555 0 -566 -22 -635 -53 -167 -180 -295 -348 -348 -69 -22
-79 -22 -680 -22 -567 0 -613 1 -638 18 -41 27 -58 60 -67 131 -14 112 -64
186 -163 238 -39 22 -54 23 -237 23 -183 0 -198 -1 -237 -23 -99 -52 -149
-126 -163 -238 -9 -71 -26 -104 -67 -131 -25 -17 -71 -18 -638 -18 -601 0
-611 0 -680 22 -167 53 -296 181 -348 348 -22 69 -22 80 -22 635 0 520 1 570
18 625 30 97 66 156 138 228 73 73 172 128 265 145 29 6 724 10 1729 11 1407
0 1691 -2 1746 -13z m-4041 -996 l0 -350 -39 0 c-76 0 -71 -26 -71 349 0 186
3 341 7 344 3 4 28 7 55 7 l48 0 0 -350z m4708 6 c2 -265 -1 -341 -10 -348 -7
-4 -32 -8 -55 -8 l-43 0 0 351 0 350 53 -3 52 -3 3 -339z"/>
<path d="M891 3310 c-152 -23 -260 -102 -325 -240 -30 -63 -31 -70 -34 -228
-4 -184 2 -202 63 -202 64 0 69 12 75 177 5 127 9 155 29 196 45 93 115 140
232 156 46 6 67 14 81 31 23 28 23 62 1 88 -23 26 -54 32 -122 22z"/>
<path d="M3282 3147 c-12 -13 -22 -34 -22 -46 0 -29 226 -579 248 -603 20 -24
84 -24 105 0 24 27 247 571 247 603 0 33 -34 69 -66 69 -44 0 -71 -42 -151
-237 -43 -106 -81 -189 -85 -185 -4 4 -43 94 -87 201 -44 106 -88 199 -98 207
-27 21 -67 17 -91 -9z"/>
<path d="M3982 3150 c-22 -21 -22 -25 -22 -330 l0 -309 26 -20 c15 -12 34 -21
44 -21 10 0 29 9 44 21 25 20 26 24 26 125 l0 104 30 0 c27 0 37 -11 109 -119
44 -65 87 -121 96 -125 28 -10 52 -7 73 12 42 34 37 60 -27 162 l-60 95 35 29
c102 84 106 239 8 333 -55 53 -91 63 -240 63 -107 0 -123 -2 -142 -20z m285
-152 c31 -29 30 -72 -2 -103 -21 -22 -33 -25 -95 -25 l-70 0 0 75 0 75 72 0
c60 0 76 -4 95 -22z"/>
<path d="M550 2510 c-17 -17 -20 -33 -20 -109 0 -85 1 -91 27 -111 32 -25 69
-20 96 12 13 16 17 39 17 104 0 96 -16 124 -70 124 -17 0 -39 -9 -50 -20z"/>
</g>
</svg>
