<?xml version="1.0" encoding="UTF-8" standalone="no"?>
<!-- Uploaded to: SVG Repo, www.svgrepo.com, Generator: SVG Repo Mixer Tools -->

<svg
   fill="#000000"
   version="1.1"
   id="Capa_1"
   width="800px"
   height="800px"
   viewBox="0 0 24.75 24.75"
   xmlSpace="preserve"
   sodipodiDocname="thelines.svg"
   inkscapeVersion="1.3 (0e150ed6c4, 2023-07-21)"
   xmlnsInkscape="http://www.inkscape.org/namespaces/inkscape"
   xmlnsSodipodi="http://sodipodi.sourceforge.net/DTD/sodipodi-0.dtd"
   xmlns="http://www.w3.org/2000/svg"
   xmlnsSvg="http://www.w3.org/2000/svg"><g
   id="g1">&#10;	<path
   d="M0,3.875c0-1.104,0.896-2,2-2h20.75c1.104,0,2,0.896,2,2s-0.896,2-2,2H2C0.896,5.875,0,4.979,0,3.875z M22.75,10.375H2   c-1.104,0-2,0.896-2,2c0,1.104,0.896,2,2,2h20.75c1.104,0,2-0.896,2-2C24.75,11.271,23.855,10.375,22.75,10.375z M22.75,18.875H2   c-1.104,0-2,0.896-2,2s0.896,2,2,2h20.75c1.104,0,2-0.896,2-2S23.855,18.875,22.75,18.875z"
   id="path1"
   style="fill:#84ebe8;fill-opacity:1" />&#10;</g>&#10;</svg>
